PathFileType	4	(X/Y/Z)	E:\3-PhD\Data\MocapData\ElaboratedData\009\pre\dynamicElaborations\RunA2\RunA2.trc
DataRate	CameraRate	NumFrames	NumMarkers	Units	OrigDataRate	DataStartFrame
200	200	4	54	mm	200	289
Frame#	Time	FHD			LBHD			RBHD			C7			T10			CLAV			LSHO			LUUPA			LMUPA			LDUPA			LLEP			LMEP			LRAD			LUL			LRFIN			RSHO			RUPA1			RMUPA			RDUPA			RLEP			RMEP			RRAD			RUL			RUFIN			RASI			USACR			LSACR			RSACR			LTHI1			LTHI2			LTHI3			LTHI4			LTIB1			LTIB2			LTIB3			LTIB4			LLMAL			LHEE			LMT1			LMT2			RTHI			RTHI2			RTHI3			RTHI4			RLFC			RTIB1			RTIB2			RTIB3			RTIB4			RLMAL			RHEE			RMT1			RMT2			RMT5		
		X1	Y1	Z1	X2	Y2	Z2	X3	Y3	Z3	X4	Y4	Z4	X5	Y5	Z5	X6	Y6	Z6	X7	Y7	Z7	X8	Y8	Z8	X9	Y9	Z9	X10	Y10	Z10	X11	Y11	Z11	X12	Y12	Z12	X13	Y13	Z13	X14	Y14	Z14	X15	Y15	Z15	X16	Y16	Z16	X17	Y17	Z17	X18	Y18	Z18	X19	Y19	Z19	X20	Y20	Z20	X21	Y21	Z21	X22	Y22	Z22	X23	Y23	Z23	X24	Y24	Z24	X25	Y25	Z25	X26	Y26	Z26	X27	Y27	Z27	X28	Y28	Z28	X29	Y29	Z29	X30	Y30	Z30	X31	Y31	Z31	X32	Y32	Z32	X33	Y33	Z33	X34	Y34	Z34	X35	Y35	Z35	X36	Y36	Z36	X37	Y37	Z37	X38	Y38	Z38	X39	Y39	Z39	X40	Y40	Z40	X41	Y41	Z41	X42	Y42	Z42	X43	Y43	Z43	X44	Y44	Z44	X45	Y45	Z45	X46	Y46	Z46	X47	Y47	Z47	X48	Y48	Z48	X49	Y49	Z49	X50	Y50	Z50	X51	Y51	Z51	X52	Y52	Z52	X53	Y53	Z53	X54	Y54	Z54	

296	1.475000	-612.783117	1503.012732	42.896320	-813.038200	1497.312451	45.317494	-722.052370	1495.734822	133.967087	-852.666898	1384.831246	78.789242	-1058.624745	1095.275241	108.508434	-762.933389	1246.886528	63.883662	-789.644152	1301.188444	-77.755161	-917.395169	1177.946218	-186.333748	-912.852793	1133.177824	-167.432195	-959.306357	1125.250098	-204.928120	-1049.544048	1053.647226	-229.771077	-1095.000057	1072.679437	-170.394486	-1117.058601	803.522129	-170.959401	-1170.987547	815.133060	-220.261804	-1127.011998	724.633311	-189.388070	-779.183687	1315.271178	234.745900	-866.224324	1220.761067	360.671054	-847.984320	1178.136936	367.233761	-897.672223	1179.521683	410.749529	-942.684776	1070.834532	473.119603	-985.808142	1041.884233	422.919757	-737.720923	933.462750	376.086369	-758.573685	891.362710	426.597842	-666.466097	924.383155	408.256391	-884.557053	920.489294	190.192559	-1090.733805	1000.305414	134.265880	-1104.755711	964.123311	116.680403	-1082.387034	975.494848	170.280026	-948.574001	664.362046	-87.975150	-879.592372	624.689245	-120.125274	-843.037871	655.938769	-123.968405	-862.253198	565.976491	-112.689563	-804.506757	370.483081	-6.172533	-892.367540	385.042646	-5.435139	-860.418813	359.104108	7.062521	-889.039184	330.856470	83.259200	-1016.972114	299.263271	170.674669	-1063.084941	343.531214	252.387059	-911.823757	183.537002	215.274195	-936.339954	175.456278	174.380963	-859.436745	723.877106	345.516304	-809.702995	682.522435	351.382564	-779.473509	685.831473	335.537449	-818.310632	597.590534	366.436499	-768.556527	501.944454	383.289885	-738.031299	288.778374	427.768545	-799.349843	243.586369	504.189020	-761.405967	227.606022	481.349693	-765.361844	173.133751	475.188467	-822.314491	109.391458	557.872667	-897.358290	56.047522	549.253510	-682.515804	54.542950	482.535000	-672.577960	57.024721	522.504618	-698.349395	36.896650	585.844923	
297	1.480000	-588.301684	1498.312130	31.711911	-788.610085	1491.859571	37.053098	-696.278377	1490.840257	124.469127	-827.421350	1379.930389	71.806705	-1033.714136	1090.694453	104.980925	-738.041315	1240.718122	55.966024	-766.911515	1294.153652	-86.014099	-900.048381	1173.394295	-190.805331	-895.821026	1128.379690	-171.970480	-943.481259	1121.577518	-208.154842	-1035.093567	1051.462995	-231.044305	-1078.996723	1071.503990	-170.943118	-1108.949259	803.897924	-169.718889	-1162.893050	816.865551	-218.800540	-1121.697634	724.916535	-187.680156	-750.273512	1310.265541	227.166151	-830.498779	1212.021320	355.014633	-811.178587	1169.796646	360.313970	-858.977101	1169.477541	405.709879	-898.609317	1058.192817	467.239371	-943.539146	1029.022399	419.158755	-694.470327	930.342876	359.998833	-711.680172	886.412948	410.510962	-621.496175	922.928464	388.901200	-859.835317	916.563588	188.755305	-1066.165628	995.257729	131.014883	-1079.873080	958.754048	113.910921	-1057.553032	971.063127	167.326268	-921.836671	663.513062	-92.852880	-852.335498	626.612555	-127.224812	-816.913245	659.124992	-131.518389	-832.877356	568.483858	-120.911429	-765.203416	374.000090	-17.275194	-853.458300	385.287147	-13.821099	-820.241315	360.427397	-2.567150	-845.688202	330.488759	74.003832	-969.303140	293.354952	165.080500	-1014.529325	335.046949	248.711681	-858.600984	181.446722	205.461171	-883.993643	172.822555	165.156005	-838.309963	718.800608	345.398498	-789.368135	676.531506	351.984926	-758.788460	679.246276	336.698660	-799.761965	591.671840	366.682968	-751.629307	495.154225	384.144089	-729.481938	281.420206	429.439883	-793.921016	238.986389	505.166081	-756.266149	221.416804	482.940758	-762.637833	167.140502	476.918193	-823.182531	106.138590	559.849848	-898.482943	52.289900	551.054537	-683.602162	55.023859	483.639420	-673.523477	57.037277	523.457735	-698.856928	36.059352	587.098190	
298	1.485000	-564.025706	1493.863118	20.457697	-764.355965	1486.697686	28.669728	-670.733093	1486.229875	114.854271	-802.268724	1375.289965	64.733669	-1008.839048	1086.394087	100.943426	-713.243304	1234.748921	47.807549	-744.455391	1287.490219	-94.440048	-883.062850	1169.844804	-195.480307	-879.122269	1124.491043	-176.960377	-928.031919	1119.078842	-211.710512	-1020.987578	1050.418456	-232.685507	-1063.232227	1071.151964	-171.781483	-1099.519247	805.154484	-168.793066	-1153.726880	819.182190	-217.356201	-1114.601521	726.168171	-186.211649	-721.235714	1305.613175	219.207086	-794.532305	1203.739087	348.450160	-774.217926	1161.921287	352.427235	-819.992786	1159.901112	399.405824	-854.395848	1046.062098	460.090873	-900.950608	1016.635903	413.945737	-651.589662	928.287433	342.775372	-665.079822	882.530509	392.969336	-577.224199	922.741285	368.641437	-835.226147	912.834569	187.131952	-1041.670183	990.578189	127.153498	-1055.031825	953.741480	110.537752	-1032.853511	967.033803	163.788573	-895.417772	662.572502	-97.590895	-825.518529	628.469507	-134.067739	-791.327511	662.220160	-138.874913	-803.940828	571.036599	-128.810002	-725.993249	377.687560	-28.269198	-814.472135	385.400910	-22.030782	-779.994699	361.781218	-12.120334	-801.959511	330.096520	64.712126	-920.798882	287.104922	159.332575	-965.034299	326.089800	244.846623	-804.512069	179.511661	195.215540	-830.732209	170.247706	155.588983	-817.224418	714.469817	344.829731	-769.108182	671.265901	351.962095	-738.324384	673.309766	337.050145	-781.287792	586.612565	366.764570	-735.170116	489.040871	384.961813	-721.200548	274.923034	431.029476	-788.366826	235.292832	506.201462	-751.107153	216.238693	484.563968	-759.861071	162.186879	478.459783	-823.624947	103.927507	561.622224	-899.395084	49.786112	552.539257	-684.470234	55.612792	484.518343	-674.278118	57.225636	524.217665	-699.266394	35.579281	588.095801	
299	1.490000	-539.913303	1489.721456	9.176124	-740.243283	1481.902979	20.178275	-645.390992	1481.951555	105.141100	-777.176466	1370.982965	57.552618	-983.988717	1082.427419	96.392985	-688.544200	1229.102656	39.378351	-722.281893	1281.305231	-103.042056	-866.361115	1167.307185	-200.365396	-862.690102	1121.535671	-182.417420	-912.868612	1117.745007	-215.594567	-1007.137431	1050.498191	-234.677229	-1047.614392	1071.637341	-172.902119	-1088.785108	807.183652	-168.176645	-1143.516976	822.010843	-215.920670	-1105.759797	728.248242	-184.983727	-692.081451	1301.403360	210.798196	-758.449004	1196.059154	340.928039	-737.226400	1154.653560	343.541321	-780.867433	1150.931034	391.776970	-810.266284	1034.648185	451.632663	-858.250210	1004.937293	407.174448	-609.262652	927.441026	324.451600	-618.967203	879.904649	373.997790	-533.833568	923.971701	347.506523	-810.664848	909.428670	185.243812	-1017.213723	986.329590	122.691256	-1030.216375	949.172952	106.527482	-1008.273836	963.419829	159.651678	-869.309278	661.546653	-102.208471	-799.125349	630.239242	-140.650539	-766.260391	665.194745	-146.022649	-775.436555	573.603689	-136.359218	-686.933421	381.528940	-39.121678	-775.420613	385.383118	-30.076463	-739.722633	363.171779	-21.597295	-757.882928	329.719667	55.381200	-871.493867	280.612080	153.364701	-914.650597	316.781272	240.680599	-749.687418	177.852143	184.522738	-776.655093	167.849494	145.650125	-796.149453	710.901466	343.814935	-748.892807	666.755725	351.360807	-718.032590	668.054078	336.635800	-762.848166	582.443202	366.690927	-719.070921	483.664134	385.691004	-713.148234	269.331701	432.541929	-782.684437	232.516066	507.243526	-745.900441	212.072918	486.181723	-756.971493	158.266037	479.806061	-823.611718	102.727981	563.106783	-900.059076	48.528054	553.692500	-685.067784	56.177317	485.190386	-674.800891	57.459542	524.809415	-699.570197	35.330235	588.860711	
